<svg width="16" height="16" viewBox="0 0 16 16" fill="none" xmlns="http://www.w3.org/2000/svg">
<path d="M13.3654 1.14941H2.47514C2.08129 1.14941 1.70357 1.30587 1.42507 1.58437C1.14657 1.86287 0.990112 2.24059 0.990112 2.63445L0.990112 13.5247C0.990112 13.9185 1.14657 14.2963 1.42507 14.5748C1.70357 14.8533 2.08129 15.0097 2.47514 15.0097H6.72141V10.2975H4.7723V8.07956H6.72141V6.3891C6.72141 4.4663 7.86612 3.40419 9.61939 3.40419C10.4591 3.40419 11.3371 3.55393 11.3371 3.55393V5.44116H10.3696C9.41643 5.44116 9.11912 6.0327 9.11912 6.63939V8.07956H11.247L10.9067 10.2975H9.11912V15.0097H13.3654C13.7592 15.0097 14.137 14.8533 14.4155 14.5748C14.694 14.2963 14.8504 13.9185 14.8504 13.5247V2.63445C14.8504 2.24059 14.694 1.86287 14.4155 1.58437C14.137 1.30587 13.7592 1.14941 13.3654 1.14941Z" fill="#1E1E1E"/>
</svg>
