<svg width="31" height="29" viewBox="0 0 31 29" fill="none" xmlns="http://www.w3.org/2000/svg">
<path d="M0.168605 3.09474C0.168605 2.84852 0.266415 2.61238 0.440519 2.43828C0.614622 2.26418 0.850757 2.16637 1.09698 2.16637H1.91023C3.26009 2.16637 4.0362 3.04461 4.48554 3.92099C4.7919 4.52072 5.01285 5.25228 5.19667 5.88728H24.3119C24.5988 5.88737 24.8817 5.95394 25.1386 6.08177C25.3954 6.20959 25.6192 6.3952 25.7922 6.62403C25.9653 6.85286 26.083 7.11867 26.136 7.40062C26.1891 7.68257 26.1761 7.97298 26.098 8.24906L23.3204 18.0434C23.0994 18.8205 22.6311 19.5043 21.9864 19.9911C21.3417 20.478 20.5558 20.7413 19.748 20.7412H10.3176C9.50297 20.7415 8.71088 20.4739 8.06333 19.9797C7.41578 19.4855 6.9487 18.7921 6.73406 18.0063L5.54202 13.6336C5.53519 13.614 5.529 13.5942 5.52346 13.5742L3.60915 7.08117L3.42348 6.45545C3.2378 5.81301 3.07441 5.24485 2.82932 4.76767C2.5341 4.19208 2.26301 4.02497 1.90837 4.02497H1.09512C0.848901 4.02497 0.612765 3.92716 0.438662 3.75305C0.264558 3.57895 0.166748 3.34282 0.166748 3.0966M7.31336 13.0729L8.52581 17.5216C8.63331 17.9144 8.86692 18.2609 9.19068 18.5078C9.51444 18.7547 9.91039 18.8884 10.3176 18.8882H19.7498C20.1536 18.8878 20.5462 18.7558 20.8682 18.5122C21.1901 18.2686 21.4239 17.9268 21.5342 17.5384L24.3119 7.74403H5.74441L7.31336 13.0729ZM13.1714 25.3812C13.1714 26.1199 12.878 26.8283 12.3556 27.3506C11.8333 27.8729 11.1249 28.1664 10.3863 28.1664C9.64761 28.1664 8.93921 27.8729 8.4169 27.3506C7.89459 26.8283 7.60115 26.1199 7.60115 25.3812C7.60115 24.6426 7.89459 23.9342 8.4169 23.4119C8.93921 22.8896 9.64761 22.5961 10.3863 22.5961C11.1249 22.5961 11.8333 22.8896 12.3556 23.4119C12.878 23.9342 13.1714 24.6426 13.1714 25.3812ZM11.3146 25.3812C11.3146 25.135 11.2168 24.8989 11.0427 24.7248C10.8686 24.5507 10.6325 24.4529 10.3863 24.4529C10.1401 24.4529 9.90392 24.5507 9.72981 24.7248C9.55571 24.8989 9.4579 25.135 9.4579 25.3812C9.4579 25.6275 9.55571 25.8636 9.72981 26.0377C9.90392 26.2118 10.1401 26.3096 10.3863 26.3096C10.6325 26.3096 10.8686 26.2118 11.0427 26.0377C11.2168 25.8636 11.3146 25.6275 11.3146 25.3812ZM22.4551 25.3812C22.4551 26.1199 22.1617 26.8283 21.6394 27.3506C21.1171 27.8729 20.4087 28.1664 19.67 28.1664C18.9313 28.1664 18.2229 27.8729 17.7006 27.3506C17.1783 26.8283 16.8849 26.1199 16.8849 25.3812C16.8849 24.6426 17.1783 23.9342 17.7006 23.4119C18.2229 22.8896 18.9313 22.5961 19.67 22.5961C20.4087 22.5961 21.1171 22.8896 21.6394 23.4119C22.1617 23.9342 22.4551 24.6426 22.4551 25.3812ZM20.5984 25.3812C20.5984 25.135 20.5006 24.8989 20.3265 24.7248C20.1524 24.5507 19.9162 24.4529 19.67 24.4529C19.4238 24.4529 19.1876 24.5507 19.0135 24.7248C18.8394 24.8989 18.7416 25.135 18.7416 25.3812C18.7416 25.6275 18.8394 25.8636 19.0135 26.0377C19.1876 26.2118 19.4238 26.3096 19.67 26.3096C19.9162 26.3096 20.1524 26.2118 20.3265 26.0377C20.5006 25.8636 20.5984 25.6275 20.5984 25.3812Z" fill="#F7F7F7"/>
<circle cx="24" cy="6.5" r="6.5" fill="#B80000"/>
<path d="M23.1159 5.72237H23.295C23.3952 5.72237 23.4915 5.71659 23.5839 5.70503C23.6802 5.69348 23.765 5.66844 23.8381 5.62992C23.9152 5.5914 23.9768 5.53555 24.023 5.46237C24.0693 5.38918 24.0924 5.29096 24.0924 5.1677C24.0924 5.00977 24.0384 4.88074 23.9306 4.78059C23.8227 4.68044 23.6821 4.63037 23.5088 4.63037C23.3701 4.63037 23.245 4.67081 23.1333 4.7517C23.0254 4.82874 22.9464 4.93851 22.8964 5.08103L22.1626 4.88459C22.2088 4.73437 22.2743 4.6034 22.359 4.4917C22.4438 4.38 22.5439 4.28948 22.6595 4.22014C22.775 4.14696 22.9021 4.09303 23.0408 4.05837C23.1795 4.0237 23.3239 4.00637 23.4741 4.00637C23.6513 4.00637 23.8189 4.02948 23.9768 4.0757C24.1347 4.12192 24.2734 4.19125 24.3928 4.2837C24.5122 4.37229 24.6066 4.48592 24.6759 4.62459C24.7491 4.7594 24.7857 4.91733 24.7857 5.09837C24.7857 5.31792 24.7241 5.51437 24.6008 5.6877C24.4775 5.85718 24.3061 5.96888 24.0866 6.02281V6.03437C24.3485 6.07288 24.5469 6.18459 24.6817 6.36948C24.8165 6.55437 24.8839 6.77392 24.8839 7.02814C24.8839 7.22459 24.8454 7.39792 24.7684 7.54814C24.6952 7.69837 24.595 7.82548 24.4679 7.92948C24.3408 8.02963 24.1925 8.10666 24.023 8.16059C23.8574 8.21066 23.6841 8.2357 23.503 8.2357C23.3335 8.2357 23.1737 8.21644 23.0235 8.17792C22.8733 8.14326 22.7365 8.0874 22.6133 8.01037C22.4938 7.93333 22.3898 7.83511 22.3013 7.7157C22.2127 7.59244 22.1453 7.44607 22.099 7.27659L22.8386 7.08014C22.881 7.24963 22.9561 7.38059 23.0639 7.47303C23.1718 7.56548 23.3181 7.6117 23.503 7.6117C23.5955 7.6117 23.6821 7.59629 23.763 7.56548C23.8478 7.53466 23.921 7.49229 23.9826 7.43837C24.0481 7.38059 24.0981 7.31318 24.1328 7.23614C24.1713 7.15526 24.1906 7.06666 24.1906 6.97037C24.1906 6.8394 24.1617 6.73348 24.1039 6.65259C24.05 6.56785 23.9787 6.50429 23.8901 6.46192C23.8054 6.4157 23.7091 6.38488 23.6013 6.36948C23.4934 6.35407 23.3875 6.34637 23.2835 6.34637H23.1159V5.72237Z" fill="white"/>
</svg>
