<svg width="17" height="16" viewBox="0 0 17 16" fill="none" xmlns="http://www.w3.org/2000/svg">
<path d="M16.4776 8.07984C16.4776 12.4551 12.9326 16 8.55738 16C7.73981 16 6.95418 15.8755 6.21326 15.6455C6.53582 15.1186 7.01805 14.2563 7.1969 13.5697C7.29271 13.1992 7.68871 11.6854 7.68871 11.6854C7.9474 12.1773 8.70109 12.5956 9.50269 12.5956C11.8915 12.5956 13.6129 10.3984 13.6129 7.66786C13.6129 5.05229 11.4763 3.0946 8.72983 3.0946C5.31266 3.0946 3.49549 5.38762 3.49549 7.88822C3.49549 9.0507 4.11506 10.4974 5.10188 10.9573C5.25198 11.0275 5.33183 10.9956 5.36695 10.8519C5.3925 10.7433 5.52664 10.2036 5.58731 9.95449C5.60648 9.87465 5.5969 9.80439 5.53302 9.72775C5.21047 9.32854 4.94859 8.6004 4.94859 7.92016C4.94859 6.17325 6.27075 4.48383 8.52544 4.48383C10.4704 4.48383 11.834 5.80918 11.834 7.70619C11.834 9.8491 10.7514 11.3341 9.34301 11.3341C8.56696 11.3341 7.98253 10.6922 8.17095 9.9034C8.3945 8.96128 8.82564 7.94571 8.82564 7.26547C8.82564 6.65868 8.49989 6.15089 7.82285 6.15089C7.02764 6.15089 6.38891 6.97165 6.38891 8.07345C6.38891 8.77605 6.62524 9.2487 6.62524 9.2487C6.62524 9.2487 5.8428 12.5637 5.69909 13.1832C5.53941 13.8667 5.60328 14.8311 5.67035 15.4571C2.72583 14.3042 0.637207 11.4363 0.637207 8.07984C0.637207 3.70458 4.18212 0.159668 8.55738 0.159668C12.9326 0.159668 16.4776 3.70458 16.4776 8.07984Z" fill="#1E1E1E"/>
</svg>